<svg xmlns="http://www.w3.org/2000/svg" viewBox="0 0 720 200" role="img" aria-label="'!ŗŁ├A4┐ äŁ├ SFT RL Ķr">
  <defs>
    <marker id="lp-arrow" markerWidth="8" markerHeight="8" refX="6" refY="3" orient="auto">
      <path d="M0,0 L0,6 L8,3 z" fill="#6366f1"/>
    </marker>
    <linearGradient id="lp-bg" x1="0" y1="0" x2="1" y2="0">
      <stop offset="0%" stop-color="#eff6ff"/>
      <stop offset="100%" stop-color="#f5f3ff"/>
    </linearGradient>
  </defs>
  <rect width="720" height="200" fill="url(#lp-bg)" rx="12"/>
  <text x="360" y="28" text-anchor="middle" font-family="Segoe UI, PingFang SC, sans-serif" font-size="16" font-weight="700" fill="#1e293b">LLM Ł├ĶrA4┐</text>
  <!-- Stages -->
  <g font-family="Segoe UI, PingFang SC, sans-serif">
    <rect x="20" y="60" width="100" height="72" rx="8" fill="#dbeafe" stroke="#3b82f6" stroke-width="2"/>
    <text x="70" y="88" text-anchor="middle" font-size="12" font-weight="700" fill="#1e293b">äŁ├</text>
    <text x="70" y="106" text-anchor="middle" font-size="10" fill="#475569">NTP Ę wŽĒÖ</text>
    <text x="70" y="122" text-anchor="middle" font-size="9" fill="#64748b">Base Model</text>
    <rect x="150" y="60" width="100" height="72" rx="8" fill="#ede9fe" stroke="#8b5cf6" stroke-width="2"/>
    <text x="200" y="88" text-anchor="middle" font-size="12" font-weight="700" fill="#1e293b">SFT</text>
    <text x="200" y="106" text-anchor="middle" font-size="10" fill="#475569">õ«</text>
    <text x="200" y="122" text-anchor="middle" font-size="9" fill="#64748b">Chat Model</text>
    <rect x="280" y="60" width="100" height="72" rx="8" fill="#cffafe" stroke="#0ea5e9" stroke-width="2"/>
    <text x="330" y="88" text-anchor="middle" font-size="12" font-weight="700" fill="#1e293b">RL / GRPO</text>
    <text x="330" y="106" text-anchor="middle" font-size="10" fill="#475569">O}∙P</text>
    <text x="330" y="122" text-anchor="middle" font-size="9" fill="#64748b">Reward Ę KL</text>
    <rect x="410" y="60" width="100" height="72" rx="8" fill="#c7d2fe" stroke="#6366f1" stroke-width="2"/>
    <text x="460" y="88" text-anchor="middle" font-size="12" font-weight="700" fill="#1e293b">Ž</text>
    <text x="460" y="106" text-anchor="middle" font-size="10" fill="#475569">INT8 / GPTQ</text>
    <text x="460" y="122" text-anchor="middle" font-size="9" fill="#64748b">ŗ)C═</text>
    <rect x="540" y="60" width="100" height="72" rx="8" fill="#bbf7d0" stroke="#22c55e" stroke-width="2"/>
    <text x="590" y="88" text-anchor="middle" font-size="12" font-weight="700" fill="#1e293b">Ķr</text>
    <text x="590" y="106" text-anchor="middle" font-size="10" fill="#475569">vLLM Ę API</text>
    <text x="590" y="122" text-anchor="middle" font-size="9" fill="#64748b">©Ī</text>
  </g>
  <line x1="120" y1="96" x2="150" y2="96" stroke="#6366f1" stroke-width="2" marker-end="url(#lp-arrow)"/>
  <line x1="250" y1="96" x2="280" y2="96" stroke="#6366f1" stroke-width="2" marker-end="url(#lp-arrow)"/>
  <line x1="380" y1="96" x2="410" y2="96" stroke="#6366f1" stroke-width="2" marker-end="url(#lp-arrow)"/>
  <line x1="510" y1="96" x2="540" y2="96" stroke="#6366f1" stroke-width="2" marker-end="url(#lp-arrow)"/>
  <text x="360" y="168" text-anchor="middle" font-family="Segoe UI, PingFang SC, sans-serif" font-size="11" fill="#475569">„`Y Part 8BPE Æ GPT Æ NTP Æ SFT Æ ─0 Æ Ž Æ </text>
  <text x="360" y="186" text-anchor="middle" font-family="Segoe UI, PingFang SC, sans-serif" font-size="10" fill="#64748b">Õ¦Megatron / DeepSpeed Ę LLaMA-Factory Ę DeepSeek API</text>
</svg>
