<svg xmlns="http://www.w3.org/2000/svg" viewBox="0 0 480 320" role="img" aria-label="^ŌQ‹ďeBźŌBďķB">
  <rect width="480" height="320" fill="#f8fafc" rx="12"/>
  <text x="240" y="28" text-anchor="middle" font-family="Segoe UI, PingFang SC, sans-serif" font-size="16" font-weight="700" fill="#1e293b">hř•^ŌQ‹B”Ą</text>
  <!-- Input layer -->
  <text x="60" y="58" text-anchor="middle" font-family="Segoe UI, PingFang SC, sans-serif" font-size="11" font-weight="600" fill="#3b82f6">ďeB</text>
  <circle cx="60" cy="90" r="14" fill="#dbeafe" stroke="#3b82f6" stroke-width="2"/>
  <circle cx="60" cy="130" r="14" fill="#dbeafe" stroke="#3b82f6" stroke-width="2"/>
  <circle cx="60" cy="170" r="14" fill="#dbeafe" stroke="#3b82f6" stroke-width="2"/>
  <circle cx="60" cy="210" r="14" fill="#dbeafe" stroke="#3b82f6" stroke-width="2"/>
  <text x="60" cy="250" text-anchor="middle" font-family="Segoe UI, PingFang SC, sans-serif" font-size="10" fill="#64748b">xĀ&xĄ</text>
  <!-- Hidden layer 1 -->
  <text x="180" y="58" text-anchor="middle" font-family="Segoe UI, PingFang SC, sans-serif" font-size="11" font-weight="600" fill="#8b5cf6">źŌB 1</text>
  <circle cx="160" cy="80" r="12" fill="#ede9fe" stroke="#8b5cf6" stroke-width="2"/>
  <circle cx="200" cy="80" r="12" fill="#ede9fe" stroke="#8b5cf6" stroke-width="2"/>
  <circle cx="180" cy="120" r="12" fill="#ede9fe" stroke="#8b5cf6" stroke-width="2"/>
  <circle cx="160" cy="160" r="12" fill="#ede9fe" stroke="#8b5cf6" stroke-width="2"/>
  <circle cx="200" cy="160" r="12" fill="#ede9fe" stroke="#8b5cf6" stroke-width="2"/>
  <circle cx="180" cy="200" r="12" fill="#ede9fe" stroke="#8b5cf6" stroke-width="2"/>
  <!-- Hidden layer 2 -->
  <text x="300" y="58" text-anchor="middle" font-family="Segoe UI, PingFang SC, sans-serif" font-size="11" font-weight="600" fill="#6366f1">źŌB 2</text>
  <circle cx="280" cy="100" r="12" fill="#e0e7ff" stroke="#6366f1" stroke-width="2"/>
  <circle cx="320" cy="100" r="12" fill="#e0e7ff" stroke="#6366f1" stroke-width="2"/>
  <circle cx="300" cy="150" r="12" fill="#e0e7ff" stroke="#6366f1" stroke-width="2"/>
  <circle cx="280" cy="200" r="12" fill="#e0e7ff" stroke="#6366f1" stroke-width="2"/>
  <circle cx="320" cy="200" r="12" fill="#e0e7ff" stroke="#6366f1" stroke-width="2"/>
  <!-- Output layer -->
  <text x="420" y="58" text-anchor="middle" font-family="Segoe UI, PingFang SC, sans-serif" font-size="11" font-weight="600" fill="#0ea5e9">ďķB</text>
  <circle cx="420" cy="120" r="14" fill="#cffafe" stroke="#0ea5e9" stroke-width="2"/>
  <circle cx="420" cy="180" r="14" fill="#cffafe" stroke="#0ea5e9" stroke-width="2"/>
  <!-- Connections input to hidden1 -->
  <g stroke="#cbd5e1" stroke-width="1" opacity="0.7">
    <line x1="74" y1="90" x2="148" y2="80"/><line x1="74" y1="90" x2="188" y2="80"/>
    <line x1="74" y1="90" x2="168" y2="120"/><line x1="74" y1="130" x2="148" y2="160"/>
    <line x1="74" y1="170" x2="188" y2="160"/><line x1="74" y1="210" x2="168" y2="200"/>
    <line x1="74" y1="130" x2="188" y2="80"/><line x1="74" y1="170" x2="148" y2="80"/>
  </g>
  <!-- hidden1 to hidden2 -->
  <g stroke="#cbd5e1" stroke-width="1" opacity="0.7">
    <line x1="172" y1="80" x2="268" y2="100"/><line x1="212" y1="80" x2="308" y2="100"/>
    <line x1="192" y1="120" x2="292" y2="150"/><line x1="172" y1="160" x2="268" y2="200"/>
    <line x1="212" y1="200" x2="308" y2="200"/>
  </g>
  <!-- hidden2 to output -->
  <g stroke="#cbd5e1" stroke-width="1" opacity="0.7">
    <line x1="292" y1="100" x2="406" y2="120"/><line x1="332" y1="100" x2="406" y2="180"/>
    <line x1="312" y1="150" x2="406" y2="120"/><line x1="292" y1="200" x2="406" y2="180"/>
  </g>
  <text x="240" y="268" text-anchor="middle" font-family="Segoe UI, PingFang SC, sans-serif" font-size="12" fill="#475569">y = √(Wx + b) ∑ ŌBŅ'ōb + ņ;żp</text>
  <text x="240" y="290" text-anchor="middle" font-family="Segoe UI, PingFang SC, sans-serif" font-size="10" fill="#64748b">CÕ W On b 1≠√™Įf`</text>
  <text x="240" y="308" text-anchor="middle" font-family="Segoe UI, PingFang SC, sans-serif" font-size="10" fill="#94a3b8">Ů¶ = źŌBpŌ ∑ Ĺ¶ = ŌB^ŌCp</text>
</svg>
